{"asset":{"generator":"Khronos glTF Blender I/O v4.0.44","version":"2.0"},"scene":0,"scenes":[{"name":"Scene","nodes":[0]}],"nodes":[{"mesh":0,"name":"Torch_Metal"}],"materials":[{"doubleSided":true,"name":"MI_Trim_Metal","pbrMetallicRoughness":{"baseColorTexture":{"index":1},"metallicFactor":0,"roughnessFactor":0.95}}],"meshes":[{"name":"Plane.008","primitives":[{"attributes":{"POSITION":0,"NORMAL":1,"TEXCOORD_0":2},"indices":3,"material":0}]}],"textures":[{"sampler":0,"source":0},{"sampler":0,"source":1},{"sampler":0,"source":2}],"images":[{"mimeType":"image/jpeg","name":"T_Trim_Metal_Normal","uri":"T_Trim_Metal_Normal.jpg"},{"mimeType":"image/jpeg","name":"T_Trim_Metal_BaseColor","uri":"T_Trim_Metal_BaseColor.jpg"},{"mimeType":"image/jpeg","name":"T_Trim_Metal_ORM","uri":"T_Trim_Metal_ORM.jpg"}],"accessors":[{"bufferView":0,"componentType":5126,"count":1040,"max":[0.11158035695552826,0.37051382660865784,0.3884536623954773],"min":[-0.11158035695552826,-0.2776470482349396,0.00005589520515059121],"type":"VEC3"},{"bufferView":1,"componentType":5126,"count":1040,"type":"VEC3"},{"bufferView":2,"componentType":5126,"count":1040,"type":"VEC2"},{"bufferView":3,"componentType":5123,"count":2910,"type":"SCALAR"}],"bufferViews":[{"buffer":0,"byteLength":12480,"byteOffset":0,"target":34962},{"buffer":0,"byteLength":12480,"byteOffset":12480,"target":34962},{"buffer":0,"byteLength":8320,"byteOffset":24960,"target":34962},{"buffer":0,"byteLength":5820,"byteOffset":33280,"target":34963}],"samplers":[{"magFilter":9729,"minFilter":9987}],"buffers":[{"byteLength":39100,"uri":"Torch_Metal.bin"}]}